{
	"asset":{
		"generator":"Khronos glTF Blender I/O v4.2.60",
		"version":"2.0"
	},
	"scene":0,
	"scenes":[
		{
			"name":"Scene",
			"nodes":[
				0
			]
		}
	],
	"nodes":[
		{
			"mesh":0,
			"name":"tripo_node_ba4e57e6-4436-4e96-b7ba-cf00bd1167a3",
			"scale":[
				27.329675674438477,
				27.329675674438477,
				27.329675674438477
			],
			"translation":[
				0,
				12.495353698730469,
				0
			]
		}
	],
	"materials":[
		{
			"alphaMode":"BLEND",
			"doubleSided":true,
			"name":"tripo_mat_ba4e57e6-4436-4e96-b7ba-cf00bd1167a3",
			"normalTexture":{
				"index":0
			},
			"pbrMetallicRoughness":{
				"baseColorTexture":{
					"index":1
				},
				"metallicFactor":0,
				"roughnessFactor":0.5
			}
		}
	],
	"meshes":[
		{
			"name":"tripo_mesh_ba4e57e6-4436-4e96-b7ba-cf00bd1167a3",
			"primitives":[
				{
					"attributes":{
						"POSITION":0,
						"NORMAL":1,
						"TEXCOORD_0":2
					},
					"indices":3,
					"material":0
				}
			]
		}
	],
	"textures":[
		{
			"sampler":0,
			"source":0
		},
		{
			"sampler":0,
			"source":1
		}
	],
	"images":[
		{
			"mimeType":"image/png",
			"name":"NormalGL_36866074-af5f-4e24-98a7-f41fc7e646d2",
			"uri":"NormalGL_36866074-af5f-4e24-98a7-f41fc7e646d2.png"
		},
		{
			"mimeType":"image/png",
			"name":"Color_36866074-af5f-4e24-98a7-f41fc7e646d2",
			"uri":"Color_36866074-af5f-4e24-98a7-f41fc7e646d2.png"
		}
	],
	"accessors":[
		{
			"bufferView":0,
			"componentType":5126,
			"count":76123,
			"max":[
				0.1861329972743988,
				0.47212547063827515,
				0.23816503584384918
			],
			"min":[
				-0.18954622745513916,
				-0.475785493850708,
				-0.23763929307460785
			],
			"type":"VEC3"
		},
		{
			"bufferView":1,
			"componentType":5126,
			"count":76123,
			"type":"VEC3"
		},
		{
			"bufferView":2,
			"componentType":5126,
			"count":76123,
			"type":"VEC2"
		},
		{
			"bufferView":3,
			"componentType":5125,
			"count":427980,
			"type":"SCALAR"
		}
	],
	"bufferViews":[
		{
			"buffer":0,
			"byteLength":913476,
			"byteOffset":0,
			"target":34962
		},
		{
			"buffer":0,
			"byteLength":913476,
			"byteOffset":913476,
			"target":34962
		},
		{
			"buffer":0,
			"byteLength":608984,
			"byteOffset":1826952,
			"target":34962
		},
		{
			"buffer":0,
			"byteLength":1711920,
			"byteOffset":2435936,
			"target":34963
		}
	],
	"samplers":[
		{
			"magFilter":9729,
			"minFilter":9987
		}
	],
	"buffers":[
		{
			"byteLength":4147856,
			"uri":"juana.bin"
		}
	]
}
